<svg width="270" height="54" viewBox="0 0 270 54" fill="none" xmlns="http://www.w3.org/2000/svg">
<path d="M36.74 0C24.8848 0 15.185 9.69975 15.185 21.555C15.185 34.5 15.5 50 15.5 50C15.5 50 20.6441 49.9165 21.3178 49.2428C21.9915 48.5691 22.37 47.6553 22.37 46.7025V21.555C22.37 13.5797 28.7647 7.185 36.74 7.185C44.7154 7.185 51.11 13.5797 51.11 21.555V46.7025C51.11 47.6553 51.4885 48.5691 52.1622 49.2428C52.8359 49.9165 53.7497 50.295 54.7025 50.295H61.8875C62.8403 50.295 63.7541 49.9165 64.4278 49.2428C65.1015 48.5691 65.48 47.6553 65.48 46.7025V32.3325C65.48 31.3797 65.1015 30.4659 64.4278 29.7922C63.7541 29.1185 62.8403 28.74 61.8875 28.74H58.295V21.555C58.295 9.69975 48.5953 0 36.74 0Z" fill="url(#paint0_radial_62_2)"/>
<path d="M0 34.2308L15.2077 28.0576L15.2259 30.5L2.28846 35.5385L4.41346 37.0096L15.2424 32.3325L15.5 50L4.5 54L0 50.5769V34.2308Z" fill="url(#paint1_radial_62_2)"/>
<path d="M76.2809 50V22.3294H88.2584C90.7355 22.3294 92.8701 22.7379 94.6621 23.5548C96.4541 24.3454 97.8377 25.4918 98.8127 26.9939C99.7878 28.496 100.275 30.288 100.275 32.3699C100.275 34.4254 99.7878 36.2042 98.8127 37.7064C97.8377 39.2085 96.4541 40.368 94.6621 41.1849C92.8701 41.9755 90.7355 42.3708 88.2584 42.3708H79.8386L82.6847 39.4852V50H76.2809ZM82.6847 40.1967L79.8386 37.1529H87.9026C89.8791 37.1529 91.3548 36.7313 92.3299 35.888C93.3049 35.0447 93.7925 33.872 93.7925 32.3699C93.7925 30.8414 93.3049 29.6555 92.3299 28.8122C91.3548 27.9689 89.8791 27.5473 87.9026 27.5473H79.8386L82.6847 24.5035V40.1967Z" fill="url(#paint2_linear_62_2)"/>
<path d="M114.493 50.3162C112.227 50.3162 110.211 49.8419 108.445 48.8932C106.706 47.9445 105.322 46.6532 104.295 45.0193C103.293 43.3591 102.793 41.4748 102.793 39.3666C102.793 37.232 103.293 35.3478 104.295 33.7139C105.322 32.0536 106.706 30.7624 108.445 29.84C110.211 28.8913 112.227 28.4169 114.493 28.4169C116.733 28.4169 118.736 28.8913 120.502 29.84C122.267 30.7624 123.651 32.0405 124.652 33.6744C125.654 35.3082 126.154 37.2056 126.154 39.3666C126.154 41.4748 125.654 43.3591 124.652 45.0193C123.651 46.6532 122.267 47.9445 120.502 48.8932C118.736 49.8419 116.733 50.3162 114.493 50.3162ZM114.493 45.2565C115.521 45.2565 116.443 45.0193 117.26 44.5449C118.077 44.0706 118.723 43.3986 119.197 42.5289C119.672 41.6329 119.909 40.5788 119.909 39.3666C119.909 38.128 119.672 37.0739 119.197 36.2042C118.723 35.3346 118.077 34.6626 117.26 34.1882C116.443 33.7139 115.521 33.4767 114.493 33.4767C113.465 33.4767 112.543 33.7139 111.726 34.1882C110.909 34.6626 110.25 35.3346 109.75 36.2042C109.275 37.0739 109.038 38.128 109.038 39.3666C109.038 40.5788 109.275 41.6329 109.75 42.5289C110.25 43.3986 110.909 44.0706 111.726 44.5449C112.543 45.0193 113.465 45.2565 114.493 45.2565Z" fill="url(#paint3_linear_62_2)"/>
<path d="M139.408 50.3162C137.405 50.3162 135.6 49.8682 133.992 48.9722C132.385 48.0499 131.106 46.7718 130.158 45.1379C129.235 43.504 128.774 41.5802 128.774 39.3666C128.774 37.1266 129.235 35.1896 130.158 33.5558C131.106 31.9219 132.385 30.6569 133.992 29.7609C135.6 28.8649 137.405 28.4169 139.408 28.4169C141.2 28.4169 142.768 28.8122 144.112 29.6028C145.456 30.3934 146.497 31.5925 147.234 33.2C147.972 34.8075 148.341 36.8631 148.341 39.3666C148.341 41.8438 147.985 43.8993 147.274 45.5332C146.562 47.1407 145.535 48.3398 144.191 49.1304C142.873 49.9209 141.279 50.3162 139.408 50.3162ZM140.475 45.2565C141.476 45.2565 142.385 45.0193 143.202 44.5449C144.019 44.0706 144.665 43.3986 145.139 42.5289C145.64 41.6329 145.89 40.5788 145.89 39.3666C145.89 38.128 145.64 37.0739 145.139 36.2042C144.665 35.3346 144.019 34.6626 143.202 34.1882C142.385 33.7139 141.476 33.4767 140.475 33.4767C139.447 33.4767 138.525 33.7139 137.708 34.1882C136.891 34.6626 136.232 35.3346 135.731 36.2042C135.257 37.0739 135.02 38.128 135.02 39.3666C135.02 40.5788 135.257 41.6329 135.731 42.5289C136.232 43.3986 136.891 44.0706 137.708 44.5449C138.525 45.0193 139.447 45.2565 140.475 45.2565ZM146.049 50V45.6518L146.167 39.3271L145.772 33.0419V20.6692H151.938V50H146.049Z" fill="url(#paint4_linear_62_2)"/>
<path d="M166.619 50.3162C164.853 50.3162 163.272 49.9736 161.875 49.2885C160.505 48.6033 159.438 47.5624 158.674 46.1656C157.909 44.7426 157.527 42.9374 157.527 40.7501V28.7332H163.694V39.8409C163.694 41.6066 164.063 42.9111 164.801 43.7544C165.565 44.5713 166.632 44.9798 168.002 44.9798C168.951 44.9798 169.794 44.7821 170.532 44.3868C171.27 43.9652 171.85 43.3327 172.272 42.4894C172.693 41.6198 172.904 40.5393 172.904 39.248V28.7332H179.071V50H173.22V44.1496L174.288 45.8494C173.576 47.3252 172.522 48.4452 171.125 49.2094C169.755 49.9473 168.253 50.3162 166.619 50.3162Z" fill="url(#paint5_linear_62_2)"/>
<path d="M195.061 50.3162C192.769 50.3162 190.726 49.8551 188.934 48.9327C187.142 47.984 185.732 46.6795 184.705 45.0193C183.703 43.3591 183.202 41.4748 183.202 39.3666C183.202 37.232 183.703 35.3478 184.705 33.7139C185.732 32.0536 187.142 30.7624 188.934 29.84C190.726 28.8913 192.769 28.4169 195.061 28.4169C197.301 28.4169 199.251 28.8913 200.912 29.84C202.572 30.7624 203.797 32.0932 204.588 33.8325L199.805 36.4019C199.251 35.4005 198.553 34.6626 197.71 34.1882C196.893 33.7139 195.997 33.4767 195.022 33.4767C193.968 33.4767 193.019 33.7139 192.176 34.1882C191.332 34.6626 190.66 35.3346 190.16 36.2042C189.685 37.0739 189.448 38.128 189.448 39.3666C189.448 40.6052 189.685 41.6593 190.16 42.5289C190.66 43.3986 191.332 44.0706 192.176 44.5449C193.019 45.0193 193.968 45.2565 195.022 45.2565C195.997 45.2565 196.893 45.0325 197.71 44.5845C198.553 44.1101 199.251 43.3591 199.805 42.3313L204.588 44.9402C203.797 46.6532 202.572 47.984 200.912 48.9327C199.251 49.8551 197.301 50.3162 195.061 50.3162Z" fill="url(#paint6_linear_62_2)"/>
<path d="M221.183 50V45.8494L220.788 44.9402V37.5087C220.788 36.1911 220.379 35.1633 219.562 34.4254C218.772 33.6875 217.546 33.3186 215.886 33.3186C214.753 33.3186 213.633 33.5031 212.526 33.872C211.446 34.2146 210.523 34.6889 209.759 35.2951L207.545 30.9863C208.705 30.1694 210.102 29.5369 211.736 29.0889C213.369 28.6409 215.03 28.4169 216.716 28.4169C219.958 28.4169 222.474 29.1812 224.266 30.7096C226.058 32.2381 226.954 34.6231 226.954 37.8645V50H221.183ZM214.7 50.3162C213.04 50.3162 211.617 50.0395 210.431 49.4861C209.245 48.9064 208.336 48.1289 207.704 47.1539C207.071 46.1788 206.755 45.0852 206.755 43.8729C206.755 42.608 207.058 41.5012 207.664 40.5525C208.297 39.6038 209.285 38.8659 210.629 38.3388C211.973 37.7854 213.725 37.5087 215.886 37.5087H221.539V41.1059H216.558C215.109 41.1059 214.107 41.3431 213.554 41.8174C213.027 42.2918 212.763 42.8847 212.763 43.5962C212.763 44.3868 213.066 45.0193 213.673 45.4936C214.305 45.9416 215.161 46.1656 216.242 46.1656C217.27 46.1656 218.192 45.9285 219.009 45.4541C219.826 44.9534 220.419 44.2287 220.788 43.28L221.737 46.1261C221.289 47.4965 220.472 48.5374 219.286 49.2489C218.1 49.9605 216.571 50.3162 214.7 50.3162Z" fill="url(#paint7_linear_62_2)"/>
<path d="M241.232 50.3162C238.728 50.3162 236.778 49.6838 235.382 48.4188C233.985 47.1275 233.287 45.2169 233.287 42.6871V24.0292H239.453V42.608C239.453 43.504 239.69 44.2024 240.165 44.7031C240.639 45.1774 241.285 45.4146 242.102 45.4146C243.077 45.4146 243.907 45.1511 244.592 44.624L246.252 48.9722C245.62 49.4202 244.855 49.7628 243.959 50C243.09 50.2108 242.181 50.3162 241.232 50.3162ZM230.006 33.9511V29.2075H244.75V33.9511H230.006Z" fill="url(#paint8_linear_62_2)"/>
<path d="M259.612 50.3162C257.187 50.3162 255.053 49.8419 253.208 48.8932C251.39 47.9445 249.98 46.6532 248.978 45.0193C247.977 43.3591 247.476 41.4748 247.476 39.3666C247.476 37.232 247.964 35.3478 248.939 33.7139C249.94 32.0536 251.298 30.7624 253.01 29.84C254.723 28.8913 256.66 28.4169 258.821 28.4169C260.903 28.4169 262.774 28.8649 264.434 29.7609C266.121 30.6306 267.452 31.8955 268.427 33.5558C269.402 35.1896 269.89 37.1529 269.89 39.4456C269.89 39.6828 269.876 39.9595 269.85 40.2758C269.824 40.5656 269.797 40.8424 269.771 41.1059H252.497V37.5087H266.53L264.158 38.576C264.158 37.4692 263.934 36.5073 263.486 35.6903C263.038 34.8734 262.418 34.2409 261.628 33.7929C260.837 33.3186 259.915 33.0814 258.861 33.0814C257.807 33.0814 256.871 33.3186 256.054 33.7929C255.264 34.2409 254.644 34.8866 254.196 35.7299C253.748 36.5468 253.524 37.5219 253.524 38.6551V39.6038C253.524 40.7633 253.775 41.7911 254.275 42.6871C254.802 43.5567 255.527 44.2287 256.45 44.7031C257.398 45.1511 258.505 45.3751 259.77 45.3751C260.903 45.3751 261.891 45.2038 262.735 44.8612C263.604 44.5186 264.395 44.0047 265.106 43.3195L268.387 46.8772C267.412 47.984 266.187 48.8405 264.711 49.4466C263.235 50.0264 261.536 50.3162 259.612 50.3162Z" fill="url(#paint9_linear_62_2)"/>
<defs>
<radialGradient id="paint0_radial_62_2" cx="0" cy="0" r="1" gradientUnits="userSpaceOnUse" gradientTransform="translate(134.945 27) rotate(90) scale(27 134.945)">
<stop stop-color="#EFEFEF"/>
<stop offset="1" stop-color="#39FFA0"/>
</radialGradient>
<radialGradient id="paint1_radial_62_2" cx="0" cy="0" r="1" gradientUnits="userSpaceOnUse" gradientTransform="translate(134.945 27) rotate(90) scale(27 134.945)">
<stop stop-color="#EFEFEF"/>
<stop offset="1" stop-color="#39FFA0"/>
</radialGradient>
<linearGradient id="paint2_linear_62_2" x1="73" y1="36" x2="272" y2="36" gradientUnits="userSpaceOnUse">
<stop stop-color="#3EFFA2"/>
<stop offset="1" stop-color="#3EFFA2" stop-opacity="0.4"/>
</linearGradient>
<linearGradient id="paint3_linear_62_2" x1="73" y1="36" x2="272" y2="36" gradientUnits="userSpaceOnUse">
<stop stop-color="#3EFFA2"/>
<stop offset="1" stop-color="#3EFFA2" stop-opacity="0.4"/>
</linearGradient>
<linearGradient id="paint4_linear_62_2" x1="73" y1="36" x2="272" y2="36" gradientUnits="userSpaceOnUse">
<stop stop-color="#3EFFA2"/>
<stop offset="1" stop-color="#3EFFA2" stop-opacity="0.4"/>
</linearGradient>
<linearGradient id="paint5_linear_62_2" x1="73" y1="36" x2="272" y2="36" gradientUnits="userSpaceOnUse">
<stop stop-color="#3EFFA2"/>
<stop offset="1" stop-color="#3EFFA2" stop-opacity="0.4"/>
</linearGradient>
<linearGradient id="paint6_linear_62_2" x1="73" y1="36" x2="272" y2="36" gradientUnits="userSpaceOnUse">
<stop stop-color="#3EFFA2"/>
<stop offset="1" stop-color="#3EFFA2" stop-opacity="0.4"/>
</linearGradient>
<linearGradient id="paint7_linear_62_2" x1="73" y1="36" x2="272" y2="36" gradientUnits="userSpaceOnUse">
<stop stop-color="#3EFFA2"/>
<stop offset="1" stop-color="#3EFFA2" stop-opacity="0.4"/>
</linearGradient>
<linearGradient id="paint8_linear_62_2" x1="73" y1="36" x2="272" y2="36" gradientUnits="userSpaceOnUse">
<stop stop-color="#3EFFA2"/>
<stop offset="1" stop-color="#3EFFA2" stop-opacity="0.4"/>
</linearGradient>
<linearGradient id="paint9_linear_62_2" x1="73" y1="36" x2="272" y2="36" gradientUnits="userSpaceOnUse">
<stop stop-color="#3EFFA2"/>
<stop offset="1" stop-color="#3EFFA2" stop-opacity="0.4"/>
</linearGradient>
</defs>
</svg>
